<?xml version="1.0" encoding="UTF-8"?>
<svg version="1.1" xmlns="http://www.w3.org/2000/svg" width="339" height="338">
<path d="M0 0 C2.86962874 0.00850801 5.73725532 -0.02038892 8.60668945 -0.05200195 C25.19544697 -0.11555396 41.49156228 2.07952566 57.19458008 7.63354492 C58.05027588 7.9297876 58.90597168 8.22603027 59.78759766 8.53125 C80.51768549 15.92327083 99.04644886 26.88121074 115.56958008 41.44604492 C116.0779541 41.88352051 116.58632813 42.32099609 117.11010742 42.77172852 C125.74224731 50.22287357 132.84057305 58.25815974 139.56958008 67.44604492 C140.32754883 68.44893555 141.08551758 69.45182617 141.86645508 70.48510742 C160.31769806 95.80649406 172.5703639 127.90012556 172.77270508 159.43432617 C172.77976471 160.17079376 172.78682434 160.90726135 172.7940979 161.66604614 C173.02232328 192.46755359 173.02232328 192.46755359 169.56958008 206.44604492 C169.27156494 207.6898291 169.27156494 207.6898291 168.9675293 208.95874023 C165.82069594 221.75821973 161.35667081 233.62183867 155.56958008 245.44604492 C155.26858398 246.08171387 154.96758789 246.71738281 154.6574707 247.37231445 C145.45369497 266.70938632 131.23991226 284.98374917 114.56958008 298.44604492 C114.07619141 298.85177734 113.58280273 299.25750977 113.07446289 299.67553711 C90.95287231 317.8249106 65.53461468 330.317258 37.56958008 336.44604492 C36.3413855 336.72859131 36.3413855 336.72859131 35.08837891 337.0168457 C25.6614871 338.90374167 16.16674627 338.81823394 6.59179688 338.81665039 C3.66906938 338.82099 0.74789788 338.85731287 -2.17456055 338.89526367 C-18.94883625 338.99641686 -35.30601821 336.83215636 -51.18041992 331.19604492 C-52.46952271 330.74998901 -52.46952271 330.74998901 -53.78466797 330.29492188 C-83.59770729 319.70152605 -111.20617886 300.73046705 -130.43041992 275.44604492 C-131.28781319 274.37388648 -132.14591814 273.30229687 -133.00463867 272.23120117 C-155.95118514 242.97693617 -166.92332711 206.61611944 -166.74291992 169.75854492 C-166.74076477 168.96479462 -166.73860962 168.17104431 -166.73638916 167.35324097 C-166.68473133 155.48940819 -166.28784183 144.01436758 -163.43041992 132.44604492 C-163.13240479 131.20226074 -163.13240479 131.20226074 -162.82836914 129.93334961 C-159.68153578 117.13387011 -155.21751065 105.27025117 -149.43041992 93.44604492 C-148.97892578 92.4925415 -148.97892578 92.4925415 -148.51831055 91.51977539 C-139.30856852 72.17016837 -125.09376208 53.93266674 -108.43041992 40.44604492 C-106.95895508 39.21821289 -106.95895508 39.21821289 -105.45776367 37.96557617 C-87.98890033 23.61532564 -68.27954464 13.10370322 -46.80541992 6.07104492 C-45.78847046 5.73109497 -45.78847046 5.73109497 -44.75097656 5.38427734 C-30.11189673 0.87955413 -15.21377914 -0.06840844 0 0 Z " fill="#000000" transform="translate(166.430419921875,-0.446044921875)"/>
<path d="M0 0 C3.60484875 3.56947759 6.99664738 7.23493068 10.25 11.125 C10.95636597 11.96454224 10.95636597 11.96454224 11.67700195 12.82104492 C16.16881649 18.17239955 20.59714763 23.57525103 25 29 C28.71563534 27.76145489 29.59458591 26.30982822 32 23.25 C32.78761719 22.26386719 33.57523438 21.27773437 34.38671875 20.26171875 C34.80743652 19.73368652 35.2281543 19.2056543 35.66162109 18.66162109 C38.0006119 15.75772262 40.40529327 12.90989095 42.8125 10.0625 C43.26818359 9.51948242 43.72386719 8.97646484 44.19335938 8.41699219 C46.67959404 5.47488681 49.26061862 2.70530676 52 0 C54.43415638 25.72716049 54.43415638 25.72716049 48.8828125 32.9765625 C45.58683874 36.46326168 41.96400158 39.31014179 38 42 C38.825 42.99 39.65 43.98 40.5 45 C41.04019775 45.65137939 41.58039551 46.30275879 42.13696289 46.97387695 C43.94501997 49.05114226 43.94501997 49.05114226 46.14233398 50.67260742 C49.86515323 53.67209292 51.73522285 55.79783567 52.78173828 60.54931641 C53.1432953 64.06921053 53.16963226 67.56314407 53.09790039 71.09838867 C53.06266721 73.30204173 53.11783207 75.49060923 53.18164062 77.69335938 C53.24778232 86.54665643 51.60877766 92.10486273 45.32788086 98.70922852 C44.55968018 99.46518311 43.79147949 100.2211377 43 101 C41.9485111 102.22291244 40.90956648 103.45687046 39.890625 104.70703125 C39.01138265 105.74300811 38.13121661 106.77820195 37.25 107.8125 C33.81166169 111.85730906 30.39315421 115.91722992 27 120 C22.64273724 118.4164817 20.17715591 115.0206341 17.3125 111.5625 C16.78865723 110.94084961 16.26481445 110.31919922 15.72509766 109.67871094 C11.68019079 104.86422514 7.69320967 100.00111674 3.7421875 95.109375 C2.02222481 92.95895522 2.02222481 92.95895522 0 91 C-0.18824486 88.10777447 -0.25170246 85.3120186 -0.22705078 82.41943359 C-0.22734283 81.53156662 -0.22763489 80.64369965 -0.22793579 79.72892761 C-0.22653907 76.78533253 -0.21096184 73.84198853 -0.1953125 70.8984375 C-0.19158358 68.86105487 -0.18873604 66.82367046 -0.18673706 64.7862854 C-0.17909104 59.41698275 -0.15943425 54.04778784 -0.1373291 48.67852783 C-0.11689151 43.20236672 -0.10773982 37.72618824 -0.09765625 32.25 C-0.07618926 21.49995259 -0.04204166 10.74998525 0 0 Z " fill="#665AC9" transform="translate(112,89)"/>
<path d="M0 0 C4.15378343 1.5588791 6.46937978 4.5970379 9.1875 7.9375 C9.66509766 8.51363037 10.14269531 9.08976074 10.63476562 9.68334961 C12.09655272 11.450161 13.54863636 13.22462253 15 15 C15.87057895 16.05511247 16.74164664 17.10982194 17.61328125 18.1640625 C19.75566089 20.76577395 21.89247361 23.3699827 24 26 C24.52664749 26.52849548 25.05329498 27.05699097 25.59590149 27.60150146 C27.68517405 31.17042283 27.39297509 34.69724926 27.34057617 38.71582031 C27.34123329 40.0334285 27.34123329 40.0334285 27.34190369 41.37765503 C27.33981542 44.27803861 27.31648248 47.17784253 27.29296875 50.078125 C27.28737293 52.09022709 27.28310277 54.10233328 27.28010559 56.11444092 C27.26865571 61.40815533 27.23918716 66.70162248 27.20599365 71.99523926 C27.17529594 77.39783381 27.16160088 82.80046835 27.14648438 88.203125 C27.11431772 98.80219192 27.06311951 109.40107539 27 120 C21.49748949 114.51921687 21.49748949 114.51921687 19.16796875 111.80078125 C18.68295898 111.23568848 18.19794922 110.6705957 17.69824219 110.08837891 C17.19969727 109.50233887 16.70115234 108.91629883 16.1875 108.3125 C15.66704102 107.70325684 15.14658203 107.09401367 14.61035156 106.46630859 C10.29724167 101.39620934 6.10527313 96.24026041 2 91 C-1.76381862 92.50721148 -3.58463482 94.64916931 -6.0625 97.8125 C-6.83980469 98.78832031 -7.61710937 99.76414062 -8.41796875 100.76953125 C-8.83224121 101.29111816 -9.24651367 101.81270508 -9.67333984 102.35009766 C-12.02485746 105.27456509 -14.4500273 108.13640384 -16.875 111 C-17.33914307 111.55147705 -17.80328613 112.1029541 -18.28149414 112.67114258 C-20.43473745 115.21638558 -22.62325015 117.6636214 -25 120 C-27.43415638 91.25555556 -27.43415638 91.25555556 -21.8828125 83.82421875 C-18.61135476 80.34317137 -15.00849546 77.58200282 -11 75 C-11.825 74.01 -12.65 73.02 -13.5 72 C-14.04035889 71.35071533 -14.58071777 70.70143066 -15.13745117 70.0324707 C-16.95246333 67.95108464 -16.95246333 67.95108464 -19.13793945 66.27026367 C-23.94292256 62.29404388 -25.56059358 59.37720417 -26.16796875 53.11328125 C-26.23317486 50.51383039 -26.2374683 47.91228841 -26.1875 45.3125 C-26.18225311 44.63947845 -26.17700623 43.96645691 -26.17160034 43.27304077 C-26.06604057 35.37422118 -25.77052654 28.26517006 -20.0625 22.3125 C-18.10309962 20.45344283 -16.0700085 18.74147812 -14 17 C-12.33324021 15.05587102 -10.70547251 13.07740256 -9.125 11.0625 C-6.10608116 7.35524599 -3.07041357 3.66468716 0 0 Z " fill="#665AC9" transform="translate(197,57)"/>
<path d="M0 0 C3.42375 -0.04125 6.8475 -0.0825 10.375 -0.125 C11.99220947 -0.15231201 11.99220947 -0.15231201 13.64208984 -0.18017578 C14.48980957 -0.1851709 15.3375293 -0.19016602 16.2109375 -0.1953125 C17.51490479 -0.21102295 17.51490479 -0.21102295 18.84521484 -0.22705078 C21 0 21 0 23 2 C23.23046875 4.56640625 23.23046875 4.56640625 23.1875 7.5625 C23.18105469 8.55378906 23.17460938 9.54507813 23.16796875 10.56640625 C23 13 23 13 22 14 C19.13732433 14.07325168 16.299281 14.09238205 13.4375 14.0625 C12.63119141 14.05798828 11.82488281 14.05347656 10.99414062 14.04882812 C8.99606244 14.03700518 6.99802217 14.01906914 5 14 C5 16.31 5 18.62 5 21 C3.35 21 1.7 21 0 21 C0 14.07 0 7.14 0 0 Z " fill="#EEEEEE" transform="translate(103,229)"/>
<path d="M0 0 C0.87914063 0.00064453 1.75828125 0.00128906 2.6640625 0.00195312 C4.03691406 0.02612305 4.03691406 0.02612305 5.4375 0.05078125 C6.35273437 0.04755859 7.26796875 0.04433594 8.2109375 0.04101562 C15.03667092 0.09606186 15.03667092 0.09606186 18.4375 2.36328125 C18.625 5.48828125 18.625 5.48828125 18.4375 8.36328125 C16.7875 8.36328125 15.1375 8.36328125 13.4375 8.36328125 C13.1075 7.37328125 12.7775 6.38328125 12.4375 5.36328125 C7.8175 5.36328125 3.1975 5.36328125 -1.5625 5.36328125 C-1.5625 8.99328125 -1.5625 12.62328125 -1.5625 16.36328125 C3.3875 16.69328125 8.3375 17.02328125 13.4375 17.36328125 C13.4375 16.37328125 13.4375 15.38328125 13.4375 14.36328125 C10.4675 14.36328125 7.4975 14.36328125 4.4375 14.36328125 C4.4375 13.04328125 4.4375 11.72328125 4.4375 10.36328125 C9.0575 10.36328125 13.6775 10.36328125 18.4375 10.36328125 C18.6328125 17.19921875 18.6328125 17.19921875 18.4375 19.36328125 C15.50603667 22.29474458 12.95309254 21.65489568 8.94335938 21.68554688 C7.97205078 21.68232422 7.00074219 21.67910156 6 21.67578125 C5.03255859 21.69189453 4.06511719 21.70800781 3.06835938 21.72460938 C2.13958984 21.72525391 1.21082031 21.72589844 0.25390625 21.7265625 C-0.59743896 21.72954346 -1.44878418 21.73252441 -2.32592773 21.7355957 C-5.0677682 21.279171 -5.94678481 20.59975595 -7.5625 18.36328125 C-7.86119684 15.7628617 -7.98195157 13.45628966 -7.9375 10.86328125 C-7.94910156 10.18652344 -7.96070312 9.50976562 -7.97265625 8.8125 C-7.94349295 3.88390158 -7.94349295 3.88390158 -6.32275391 1.66918945 C-4.07460453 0.0013183 -2.78114091 -0.01032326 0 0 Z " fill="#EDEDED" transform="translate(78.5625,228.63671875)"/>
<path d="M0 0 C7.26 0 14.52 0 22 0 C22 1.32 22 2.64 22 4 C16.39 4 10.78 4 5 4 C5 5.65 5 7.3 5 9 C9.62 9 14.24 9 19 9 C19 10.32 19 11.64 19 13 C14.38 13 9.76 13 5 13 C5 14.32 5 15.64 5 17 C10.94 17 16.88 17 23 17 C23 18.32 23 19.64 23 21 C15.41 21 7.82 21 0 21 C0 14.07 0 7.14 0 0 Z " fill="#EEEEEE" transform="translate(142,229)"/>
<path d="M0 0 C7.26 0 14.52 0 22 0 C22 1.32 22 2.64 22 4 C16.06 4 10.12 4 4 4 C4 5.65 4 7.3 4 9 C8.62 9 13.24 9 18 9 C18 10.32 18 11.64 18 13 C13.71 13 9.42 13 5 13 C5 14.32 5 15.64 5 17 C10.61 17 16.22 17 22 17 C22 18.32 22 19.64 22 21 C14.74 21 7.48 21 0 21 C0 14.07 0 7.14 0 0 Z " fill="#EFEFEF" transform="translate(244,229)"/>
<path d="M0 0 C6.6 0 13.2 0 20 0 C20 1.32 20 2.64 20 4 C17.36 4 14.72 4 12 4 C12 8.29 12 12.58 12 17 C14.64 17 17.28 17 20 17 C20 18.32 20 19.64 20 21 C13.07 21 6.14 21 -1 21 C-1 19.68 -1 18.36 -1 17 C1.64 17 4.28 17 7 17 C7 12.71 7 8.42 7 4 C4.36 4 1.72 4 -1 4 C-0.67 2.68 -0.34 1.36 0 0 Z " fill="#EDEDED" transform="translate(193,229)"/>
<path d="M0 0 C8.25 0 16.5 0 25 0 C25 1.65 25 3.3 25 5 C21.7 5 18.4 5 15 5 C15 10.28 15 15.56 15 21 C13.35 21 11.7 21 10 21 C10 15.72 10 10.44 10 5 C6.7 5 3.4 5 0 5 C0 3.35 0 1.7 0 0 Z " fill="#EAEAEA" transform="translate(215,229)"/>
<path d="M0 0 C1.65 0 3.3 0 5 0 C5 5.61 5 11.22 5 17 C10.28 17 15.56 17 21 17 C21 18.32 21 19.64 21 21 C14.07 21 7.14 21 0 21 C0 14.07 0 7.14 0 0 Z " fill="#F1F1F1" transform="translate(169,229)"/>
<path d="M0 0 C2.14576637 -0.02685938 4.29162645 -0.04633088 6.4375 -0.0625 C7.63246094 -0.07410156 8.82742187 -0.08570313 10.05859375 -0.09765625 C13 0 13 0 14 1 C14.125 3.5 14.125 3.5 14 6 C13 7 13 7 10.05859375 7.09765625 C8.26615234 7.08025391 8.26615234 7.08025391 6.4375 7.0625 C4.64119141 7.04896484 4.64119141 7.04896484 2.80859375 7.03515625 C1.88175781 7.02355469 0.95492187 7.01195312 0 7 C0 4.69 0 2.38 0 0 Z " fill="#252525" transform="translate(108,233)"/>
<path d="M0 0 C6.75 -0.125 6.75 -0.125 9 1 C9.125 3.375 9.125 3.375 9 6 C7 8 7 8 3.375 8.125 C2.26125 8.08375 1.1475 8.0425 0 8 C0 5.36 0 2.72 0 0 Z " fill="#4E4E4E" transform="translate(208,260)"/>
<path d="M0 0 C3.375 -0.125 3.375 -0.125 7 0 C7.66 0.66 8.32 1.32 9 2 C8.44444444 6.55555556 8.44444444 6.55555556 7 8 C4.66702567 8.04092937 2.33294775 8.04241723 0 8 C0 5.36 0 2.72 0 0 Z " fill="#515151" transform="translate(137,260)"/>
<path d="M0 0 C3.375 -0.125 3.375 -0.125 7 0 C7.66 0.66 8.32 1.32 9 2 C8.44444444 6.55555556 8.44444444 6.55555556 7 8 C4.66702567 8.04092937 2.33294775 8.04241723 0 8 C0 5.36 0 2.72 0 0 Z " fill="#505050" transform="translate(123,260)"/>
<path d="M0 0 C2.31 0 4.62 0 7 0 C7.5625 1.9375 7.5625 1.9375 8 4 C7 5 7 5 3.9375 5.0625 C2.968125 5.041875 1.99875 5.02125 1 5 C0.67 5.99 0.34 6.98 0 8 C0 5.36 0 2.72 0 0 Z " fill="#B1B1B1" transform="translate(170,260)"/>
<path d="M0 0 C1.98 0.99 1.98 0.99 4 2 C4 2.99 4 3.98 4 5 C3.67 4.67 3.34 4.34 3 4 C2.67 5.32 2.34 6.64 2 8 C1.34 8 0.68 8 0 8 C0 5.36 0 2.72 0 0 Z " fill="#7A7A7A" transform="translate(195,260)"/>
<path d="M0 0 C1.98 0 3.96 0 6 0 C5.67 0.99 5.34 1.98 5 3 C3.35 3 1.7 3 0 3 C0 2.01 0 1.02 0 0 Z " fill="#0B0B0B" transform="translate(171,261)"/>
</svg>
